<?xml version="1.0" encoding="utf-8"?>
<!-- Generator: Adobe Illustrator 24.2.1, SVG Export Plug-In . SVG Version: 6.00 Build 0)  -->
<svg version="1.1" id="Capa_1" xmlns="http://www.w3.org/2000/svg" xmlns:xlink="http://www.w3.org/1999/xlink" x="0px" y="0px"
	 viewBox="0 0 848.83 379.45" style="enable-background:new 0 0 848.83 379.45;" xml:space="preserve">
<style type="text/css">
	.st0{fill:#1D1D1B;}
</style>
<g>
	<g>
		<path class="st0" d="M135.62,125.31H88.3v-6.55h101.82v6.55H142.8v145.34h-7.18V125.31z"/>
		<path d="M143.8,271.65h-9.18V126.31H87.3v-8.55h103.82v8.55H143.8V271.65z M136.62,269.65h5.18V124.31h47.32v-4.55H89.3v4.55
			h47.32V269.65z"/>
	</g>
	<g>
		<path class="st0" d="M248.64,118.76h8.03l57.67,151.89h-6.97l-19.65-51.76h-70.77l-19.86,51.76h-6.97L248.64,118.76z
			 M285.18,212.56L252.65,127l-33.17,85.56H285.18z"/>
		<path d="M315.79,271.65h-9.11l-19.65-51.76h-69.39l-19.86,51.76h-9.12l59.29-153.89h9.4L315.79,271.65z M308.06,269.65h4.83
			l-56.91-149.89h-6.65l-57.75,149.89h4.83l19.86-51.76h72.15L308.06,269.65z M286.63,213.56h-68.61l34.64-89.35L286.63,213.56z
			 M220.94,211.56h62.79l-31.09-81.77L220.94,211.56z"/>
	</g>
	<g>
		<path class="st0" d="M343.28,198.83v71.83h-7.18V118.76h50.49c16.76,0,29.08,2.4,36.97,7.18c10,6.2,15,17.04,15,32.53
			c0,19.3-9.16,31.76-27.46,37.39c12.81,2.54,19.93,11.27,21.34,26.2c0.14,0.71,0.21,7.25,0.21,19.65l0.21,28.94h-8.24v-34.01
			c0-4.08-0.04-7.36-0.11-9.82c-0.07-2.46-0.18-4.26-0.32-5.39c-1.55-9.29-5.49-15.56-11.83-18.8c-4.93-2.54-12.68-3.8-23.24-3.8
			H343.28z M390.17,192.49c27.46,0,41.19-11.12,41.19-33.38c0-18.73-8.52-29.64-25.56-32.74c-1.97-0.28-4.58-0.53-7.82-0.74
			c-3.24-0.21-7.04-0.32-11.41-0.32h-43.31v67.18H390.17z"/>
		<path d="M433.85,271.65h-10.25v-35.01c0-3.98-0.04-7.28-0.11-9.8c-0.07-2.42-0.17-4.2-0.31-5.29
			c-1.48-8.88-5.29-14.96-11.29-18.03c-4.77-2.45-12.43-3.69-22.78-3.69h-44.84v71.83h-9.18V117.76h51.49
			c16.86,0,29.47,2.47,37.49,7.33c10.28,6.37,15.48,17.6,15.48,33.39c0,18.52-8.38,31.04-24.93,37.25
			c11.16,3.42,17.48,12.24,18.8,26.25c0.05,0.22,0.22,1.07,0.22,19.74L433.85,271.65z M425.61,269.65h6.23l-0.2-27.93
			c0-15.94-0.12-19.04-0.19-19.47c-1.39-14.66-8.11-22.94-20.55-25.4l-3.89-0.77l3.79-1.17c18-5.54,26.76-17.46,26.76-36.44
			c0-15.05-4.89-25.71-14.53-31.68c-7.69-4.67-19.95-7.03-36.44-7.03h-49.49v149.89h5.18v-71.83h46.84c10.67,0,18.65,1.32,23.7,3.91
			c6.6,3.38,10.76,9.95,12.36,19.53c0.15,1.21,0.26,3.01,0.33,5.52c0.07,2.54,0.11,5.85,0.11,9.85V269.65z M390.17,193.49h-47.9
			v-69.18h44.31c4.37,0,8.23,0.11,11.47,0.32c3.22,0.21,5.88,0.46,7.89,0.75c17.54,3.19,26.42,14.54,26.42,33.73
			C432.37,181.92,418.17,193.49,390.17,193.49z M344.28,191.49h45.9c27.05,0,40.19-10.59,40.19-32.38
			c0-18.34-8.09-28.73-24.74-31.76c-1.92-0.27-4.53-0.52-7.7-0.73c-3.2-0.21-7.02-0.31-11.34-0.31h-42.31V191.49z"/>
	</g>
	<g>
		<path class="st0" d="M571.43,259.88c-10.42,9.16-24.08,13.73-40.98,13.73c-21.69,0-38.03-7.96-49.01-23.87
			c-9.44-13.66-14.15-31.9-14.15-54.71c0-22.82,4.86-41.33,14.58-55.56c11.12-16.06,27.74-24.08,49.86-24.08
			c15.07,0,27.81,4.16,38.24,12.46c7.46,5.92,12.74,13.17,15.84,21.76l-6.55,3.38c-6.9-20.84-23.17-31.27-48.8-31.27
			c-19.01,0-33.45,7.82-43.31,23.45c-8.31,13.24-12.46,29.86-12.46,49.86c0,20.14,4.01,36.62,12.04,49.43
			c9.58,15.49,23.8,23.24,42.67,23.24c15.21,0,27.53-4.08,36.97-12.25c7.32-6.34,12.18-14.5,14.58-24.51l6.13,3.17
			C584.38,244.39,579.17,252.98,571.43,259.88z"/>
		<path d="M530.44,274.61c-21.94,0-38.7-8.18-49.83-24.3c-9.51-13.76-14.33-32.36-14.33-55.28c0-22.91,4.96-41.79,14.75-56.12
			c11.27-16.27,28.32-24.52,50.68-24.52c15.23,0,28.3,4.27,38.86,12.68c7.57,6,13.01,13.47,16.16,22.2l0.3,0.83l-8.37,4.32
			l-0.37-1.11c-6.72-20.29-22.82-30.58-47.85-30.58c-18.56,0-32.85,7.73-42.46,22.98c-8.17,13.01-12.31,29.61-12.31,49.32
			c0,19.86,4,36.31,11.89,48.9c9.34,15.11,23.41,22.77,41.83,22.77c14.89,0,27.11-4.04,36.31-12.01
			c7.13-6.17,11.92-14.24,14.26-23.98l0.3-1.24l7.97,4.12l-0.2,0.77c-2.71,10.43-8.08,19.27-15.94,26.27l0,0
			C561.53,269.91,547.52,274.61,530.44,274.61z M531.71,116.38c-21.66,0-38.16,7.96-49.03,23.65c-9.55,13.99-14.4,32.49-14.4,54.99
			c0,22.51,4.7,40.72,13.98,54.15c10.74,15.55,26.95,23.44,48.19,23.44c16.57,0,30.13-4.54,40.32-13.48
			c7.36-6.56,12.45-14.8,15.12-24.51l-4.29-2.22c-2.54,9.61-7.44,17.61-14.58,23.79c-9.58,8.29-22.24,12.5-37.62,12.5
			c-19.16,0-33.8-7.98-43.52-23.71c-8.09-12.91-12.19-29.72-12.19-49.96c0-20.1,4.25-37.05,12.62-50.39
			c10.01-15.87,24.86-23.92,44.15-23.92c25.53,0,42.14,10.38,49.37,30.85l4.73-2.44c-3.06-8.02-8.18-14.91-15.22-20.49
			C559.13,120.5,546.47,116.38,531.71,116.38z"/>
	</g>
	<g>
		<path class="st0" d="M624.03,118.76h7.18v67.6h96.12v-67.6h6.97v151.89h-6.97V192.7h-96.12v77.95h-7.18V118.76z"/>
		<path d="M735.3,271.65h-8.97V193.7h-94.12v77.95h-9.18V117.76h9.18v67.6h94.12v-67.6h8.97V271.65z M728.33,269.65h4.97V119.76
			h-4.97v67.6h-98.12v-67.6h-5.18v149.89h5.18V191.7h98.12V269.65z"/>
	</g>
</g>
</svg>
